<svg width="244" height="54" viewBox="0 0 244 54" fill="none" xmlns="http://www.w3.org/2000/svg">
    <path d="M135.619 42.2363C133.54 45.4822 130.711 48.1604 127.392 50.0013C124.17 51.788 120.495 52.8023 116.605 52.8023C110.317 52.8023 104.625 50.1808 100.504 45.9428C96.383 41.7048 93.834 35.85 93.834 29.3837C93.834 22.9177 96.383 17.0628 100.504 12.8246C104.625 8.58657 110.317 5.96509 116.605 5.96509C120.526 5.96509 124.236 7.00305 127.489 8.82863C130.851 10.7155 133.696 13.4398 135.753 16.7242L128.222 21.6959C125.656 17.6005 121.34 15.1883 116.605 15.1883C112.793 15.1883 109.342 16.7771 106.844 19.3456C104.347 21.9142 102.802 25.4633 102.802 29.3838C102.802 33.3043 104.347 36.8534 106.844 39.422C109.342 41.9905 112.793 43.5793 116.605 43.5793C118.986 43.5793 121.216 42.9694 123.153 41.8953C125.185 40.7681 126.906 39.1462 128.157 37.1927L135.619 42.2365V42.2363Z" fill="white" />
    <path d="M153.537 19.3379C158.061 19.3379 162.157 21.2244 165.123 24.274C168.088 27.3236 169.922 31.5365 169.922 36.1893C169.922 40.8421 168.088 45.055 165.123 48.1048C162.157 51.1544 158.061 53.0409 153.537 53.0409C149.013 53.0409 144.916 51.1546 141.951 48.1048C138.986 45.055 137.151 40.8422 137.151 36.1893C137.151 31.5364 138.986 27.3236 141.951 24.274C144.916 21.2242 149.013 19.3379 153.537 19.3379ZM158.782 30.7949C157.44 29.4149 155.586 28.561 153.537 28.561C151.488 28.561 149.633 29.4149 148.291 30.7949C146.95 32.1749 146.119 34.0823 146.119 36.1893C146.119 38.2964 146.95 40.2036 148.291 41.5839C149.633 42.9639 151.488 43.8178 153.537 43.8178C155.586 43.8178 157.44 42.9639 158.782 41.5839C160.124 40.2039 160.954 38.2962 160.954 36.1893C160.954 34.0823 160.124 32.175 158.782 30.7949Z" fill="white" />
    <path d="M190.057 19.3377C192.727 19.3377 195.247 19.9948 197.474 21.1598V5.05444L206.442 8.22486V36.1891V36.1892C206.442 40.8421 204.608 45.0548 201.643 48.1046C198.677 51.1542 194.581 53.0407 190.057 53.0407C185.533 53.0407 181.436 51.1545 178.471 48.1046C175.506 45.0548 173.671 40.8421 173.671 36.1891C173.671 31.5363 175.506 27.3234 178.471 24.2738C181.436 21.224 185.533 19.3377 190.057 19.3377ZM195.302 30.7947C193.96 29.4147 192.106 28.5608 190.057 28.5608C188.008 28.5608 186.153 29.4147 184.811 30.7947C183.47 32.1748 182.639 34.0821 182.639 36.1891C182.639 38.2962 183.47 40.2035 184.811 41.5837C186.153 42.9637 188.008 43.8176 190.057 43.8176C192.106 43.8176 193.96 42.9637 195.302 41.5837C196.644 40.2037 197.474 38.2962 197.474 36.1892V36.1891C197.474 34.0821 196.644 32.1749 195.302 30.7947Z" fill="white" />
    <path d="M238.712 47.9809C237.19 49.5783 235.374 50.8615 233.364 51.73C231.411 52.5743 229.268 53.0409 227.024 53.0409C222.5 53.0409 218.404 51.1546 215.438 48.1048C212.473 45.0552 210.639 40.8422 210.639 36.1894C210.639 31.5366 212.473 27.3238 215.438 24.274C218.404 21.2244 222.5 19.3379 227.024 19.3379C231.548 19.3379 235.645 21.2244 238.61 24.274C241.575 27.3238 243.409 31.5365 243.409 36.1894V40.8009H221.115C221.319 41.0773 221.541 41.3389 221.779 41.5839C223.121 42.9639 224.976 43.8178 227.024 43.8178C228.046 43.8178 229.017 43.6076 229.897 43.2275C230.83 42.8241 231.658 42.2439 232.337 41.532L238.712 47.9808L238.712 47.9809ZM221.779 30.795C221.541 31.04 221.319 31.3016 221.115 31.5779H232.934C232.729 31.3016 232.508 31.04 232.269 30.795C230.927 29.415 229.073 28.5611 227.024 28.5611C224.975 28.5611 223.121 29.415 221.779 30.795H221.779Z" fill="white" />
    <path d="M75.339 9.85471C72.8517 9.85471 70.5871 10.9045 68.9428 12.5957C67.2985 14.2867 66.2776 16.6156 66.2776 19.1736V19.6941H74.8311V28.9172H66.2776V52.799H57.3096V19.1736C57.3096 14.0697 59.3367 9.43312 62.6022 6.07478C65.8679 2.71623 70.3766 0.631592 75.339 0.631592V9.85471Z" fill="white" />
    <path d="M54.07 9.85471C51.5827 9.85471 49.3181 10.9045 47.6737 12.5957C46.0295 14.2867 45.0086 16.6156 45.0086 19.1736V19.6941H53.5621V28.9172H45.0086V52.799H36.0405V19.1736C36.0405 14.0697 38.0676 9.43312 41.3332 6.07478C44.5988 2.71623 49.1075 0.631592 54.07 0.631592V9.85471Z" fill="white" />
    <path d="M29.3821 15.2873H0.458496V6.06421H29.3821V15.2873ZM29.3821 53.5502H0.458496V44.3271H29.3821V53.5502ZM29.3821 34.4188H0.458496V25.1957H29.3821V34.4188Z" fill="white" />
    <path d="M78.9355 52.6347V21.8962L87.9036 18.9131V52.6347H78.9355Z" fill="white" />
</svg>